<svg xmlns="http://www.w3.org/2000/svg" width="64" height="64" viewBox="0 0 64 64" shape-rendering="crispEdges">
<defs><filter id="g" x="-20%" y="-20%" width="140%" height="140%">
<feGaussianBlur stdDeviation="0.6" result="b"/><feMerge><feMergeNode in="b"/><feMergeNode in="SourceGraphic"/></feMerge>
</filter></defs>
<rect width="64" height="64" fill="#000000"/>
<g filter="url(#g)"><rect x="18" y="18" width="7" height="7" fill="#475569"/><rect x="25" y="18" width="7" height="7" fill="#475569"/><rect x="32" y="18" width="7" height="7" fill="#475569"/><rect x="39" y="18" width="7" height="7" fill="#475569"/><rect x="46" y="18" width="7" height="7" fill="#475569"/><rect x="11" y="25" width="7" height="7" fill="#475569"/><rect x="18" y="25" width="7" height="7" fill="#475569"/><rect x="46" y="25" width="7" height="7" fill="#475569"/><rect x="53" y="25" width="7" height="7" fill="#475569"/><rect x="11" y="32" width="7" height="7" fill="#475569"/><rect x="18" y="32" width="7" height="7" fill="#475569"/><rect x="25" y="32" width="7" height="7" fill="#475569"/><rect x="32" y="32" width="7" height="7" fill="#475569"/><rect x="39" y="32" width="7" height="7" fill="#475569"/><rect x="46" y="32" width="7" height="7" fill="#475569"/><rect x="53" y="32" width="7" height="7" fill="#475569"/><rect x="11" y="39" width="7" height="7" fill="#475569"/><rect x="18" y="39" width="7" height="7" fill="#475569"/><rect x="46" y="39" width="7" height="7" fill="#475569"/><rect x="53" y="39" width="7" height="7" fill="#475569"/><rect x="11" y="46" width="7" height="7" fill="#475569"/><rect x="18" y="46" width="7" height="7" fill="#475569"/><rect x="46" y="46" width="7" height="7" fill="#475569"/><rect x="53" y="46" width="7" height="7" fill="#475569"/><rect x="18" y="18" width="7" height="7" fill="#000000"/><rect x="25" y="18" width="7" height="7" fill="#000000"/><rect x="32" y="18" width="7" height="7" fill="#000000"/><rect x="18" y="32" width="7" height="7" fill="#000000"/><rect x="25" y="32" width="7" height="7" fill="#000000"/><rect x="32" y="32" width="7" height="7" fill="#000000"/><rect x="18" y="39" width="7" height="7" fill="#000000"/><rect x="25" y="39" width="7" height="7" fill="#000000"/><rect x="32" y="39" width="7" height="7" fill="#000000"/><rect x="11" y="11" width="7" height="7" fill="#cbd5e1"/><rect x="18" y="11" width="7" height="7" fill="#cbd5e1"/><rect x="25" y="11" width="7" height="7" fill="#cbd5e1"/><rect x="32" y="11" width="7" height="7" fill="#cbd5e1"/><rect x="39" y="11" width="7" height="7" fill="#cbd5e1"/><rect x="4" y="18" width="7" height="7" fill="#cbd5e1"/><rect x="11" y="18" width="7" height="7" fill="#cbd5e1"/><rect x="39" y="18" width="7" height="7" fill="#cbd5e1"/><rect x="46" y="18" width="7" height="7" fill="#cbd5e1"/><rect x="4" y="25" width="7" height="7" fill="#cbd5e1"/><rect x="11" y="25" width="7" height="7" fill="#cbd5e1"/><rect x="18" y="25" width="7" height="7" fill="#cbd5e1"/><rect x="25" y="25" width="7" height="7" fill="#cbd5e1"/><rect x="32" y="25" width="7" height="7" fill="#cbd5e1"/><rect x="39" y="25" width="7" height="7" fill="#cbd5e1"/><rect x="46" y="25" width="7" height="7" fill="#cbd5e1"/><rect x="4" y="32" width="7" height="7" fill="#cbd5e1"/><rect x="11" y="32" width="7" height="7" fill="#cbd5e1"/><rect x="39" y="32" width="7" height="7" fill="#cbd5e1"/><rect x="46" y="32" width="7" height="7" fill="#cbd5e1"/><rect x="4" y="39" width="7" height="7" fill="#cbd5e1"/><rect x="11" y="39" width="7" height="7" fill="#cbd5e1"/><rect x="39" y="39" width="7" height="7" fill="#cbd5e1"/><rect x="46" y="39" width="7" height="7" fill="#cbd5e1"/></g>
</svg>
